solid OpenSCAD_Model
  facet normal -1 0 0
    outer loop
      vertex -40 -16 0
      vertex -40 -16 10
      vertex -40 16 0
    endloop
  endfacet
  facet normal -1 0 0
    outer loop
      vertex -40 16 0
      vertex -40 -16 10
      vertex -40 16 10
    endloop
  endfacet
  facet normal 0 -1 0
    outer loop
      vertex -40 -16 10
      vertex -40 -16 0
      vertex 40 -16 0
    endloop
  endfacet
  facet normal 0 -1 0
    outer loop
      vertex 40 -16 10
      vertex -40 -16 10
      vertex 40 -16 0
    endloop
  endfacet
  facet normal 0 0 -1
    outer loop
      vertex 1.04529 9.94522 0
      vertex -40 16 0
      vertex 40 16 0
    endloop
  endfacet
  facet normal 0 0 -1
    outer loop
      vertex -40 -16 0
      vertex -40 16 0
      vertex -10 0 0
    endloop
  endfacet
  facet normal 0 0 -1
    outer loop
      vertex -40 -16 0
      vertex -10 0 0
      vertex -9.78148 -2.07912 0
    endloop
  endfacet
  facet normal 0 0 -1
    outer loop
      vertex -40 -16 0
      vertex -9.78148 -2.07912 0
      vertex -9.13546 -4.06737 0
    endloop
  endfacet
  facet normal 0 0 -1
    outer loop
      vertex -40 -16 0
      vertex -9.13546 -4.06737 0
      vertex -8.09017 -5.87785 0
    endloop
  endfacet
  facet normal 0 0 -1
    outer loop
      vertex -40 -16 0
      vertex -8.09017 -5.87785 0
      vertex -6.69131 -7.43145 0
    endloop
  endfacet
  facet normal 0 0 -1
    outer loop
      vertex -40 -16 0
      vertex -6.69131 -7.43145 0
      vertex -5 -8.66025 0
    endloop
  endfacet
  facet normal 0 0 -1
    outer loop
      vertex -40 -16 0
      vertex -5 -8.66025 0
      vertex -3.09017 -9.51056 0
    endloop
  endfacet
  facet normal 0 0 -1
    outer loop
      vertex -40 -16 0
      vertex -3.09017 -9.51056 0
      vertex -1.04529 -9.94522 0
    endloop
  endfacet
  facet normal 0 0 -1
    outer loop
      vertex -40 -16 0
      vertex -1.04529 -9.94522 0
      vertex 40 -16 0
    endloop
  endfacet
  facet normal 0 0 -1
    outer loop
      vertex 3.09017 -9.51056 0
      vertex 40 -16 0
      vertex 1.04529 -9.94522 0
    endloop
  endfacet
  facet normal 0 0 -1
    outer loop
      vertex 5 -8.66025 0
      vertex 40 -16 0
      vertex 3.09017 -9.51056 0
    endloop
  endfacet
  facet normal 0 0 -1
    outer loop
      vertex 6.69131 -7.43145 0
      vertex 40 -16 0
      vertex 5 -8.66025 0
    endloop
  endfacet
  facet normal 0 0 -1
    outer loop
      vertex 8.09017 -5.87785 0
      vertex 40 -16 0
      vertex 6.69131 -7.43145 0
    endloop
  endfacet
  facet normal 0 0 -1
    outer loop
      vertex 9.13546 -4.06737 0
      vertex 40 -16 0
      vertex 8.09017 -5.87785 0
    endloop
  endfacet
  facet normal 0 0 -1
    outer loop
      vertex 9.78148 -2.07912 0
      vertex 40 -16 0
      vertex 9.13546 -4.06737 0
    endloop
  endfacet
  facet normal 0 0 -1
    outer loop
      vertex -9.78148 2.07912 0
      vertex -40 16 0
      vertex -9.13546 4.06737 0
    endloop
  endfacet
  facet normal 0 0 -1
    outer loop
      vertex 40 -16 0
      vertex 9.78148 -2.07912 0
      vertex 40 16 0
    endloop
  endfacet
  facet normal 0 0 -1
    outer loop
      vertex 9.78148 -2.07912 0
      vertex 10 0 0
      vertex 40 16 0
    endloop
  endfacet
  facet normal 0 0 -1
    outer loop
      vertex -9.13546 4.06737 0
      vertex -40 16 0
      vertex -8.09017 5.87785 0
    endloop
  endfacet
  facet normal 0 0 -1
    outer loop
      vertex 10 0 0
      vertex 9.78148 2.07912 0
      vertex 40 16 0
    endloop
  endfacet
  facet normal 0 0 -1
    outer loop
      vertex -8.09017 5.87785 0
      vertex -40 16 0
      vertex -6.69131 7.43145 0
    endloop
  endfacet
  facet normal 0 0 -1
    outer loop
      vertex 9.78148 2.07912 0
      vertex 9.13546 4.06737 0
      vertex 40 16 0
    endloop
  endfacet
  facet normal 0 0 -1
    outer loop
      vertex 9.13546 4.06737 0
      vertex 8.09017 5.87785 0
      vertex 40 16 0
    endloop
  endfacet
  facet normal 0 0 -1
    outer loop
      vertex -6.69131 7.43145 0
      vertex -40 16 0
      vertex -5 8.66025 0
    endloop
  endfacet
  facet normal 0 0 -1
    outer loop
      vertex 8.09017 5.87785 0
      vertex 6.69131 7.43145 0
      vertex 40 16 0
    endloop
  endfacet
  facet normal 0 0 -1
    outer loop
      vertex -5 8.66025 0
      vertex -40 16 0
      vertex -3.09017 9.51056 0
    endloop
  endfacet
  facet normal 0 0 -1
    outer loop
      vertex 6.69131 7.43145 0
      vertex 5 8.66025 0
      vertex 40 16 0
    endloop
  endfacet
  facet normal 0 0 -1
    outer loop
      vertex -3.09017 9.51056 0
      vertex -40 16 0
      vertex -1.04529 9.94522 0
    endloop
  endfacet
  facet normal 0 0 -1
    outer loop
      vertex 5 8.66025 0
      vertex 3.09017 9.51056 0
      vertex 40 16 0
    endloop
  endfacet
  facet normal 0 0 -1
    outer loop
      vertex 3.09017 9.51056 0
      vertex 1.04529 9.94522 0
      vertex 40 16 0
    endloop
  endfacet
  facet normal 0 0 -1
    outer loop
      vertex -1.04529 9.94522 0
      vertex -40 16 0
      vertex 1.04529 9.94522 0
    endloop
  endfacet
  facet normal 0 0 -1
    outer loop
      vertex -10 0 0
      vertex -40 16 0
      vertex -9.78148 2.07912 0
    endloop
  endfacet
  facet normal 0 0 -1
    outer loop
      vertex 1.04529 -9.94522 0
      vertex 40 -16 0
      vertex -1.04529 -9.94522 0
    endloop
  endfacet
  facet normal 0 1 0
    outer loop
      vertex -40 16 0
      vertex -40 16 10
      vertex 40 16 0
    endloop
  endfacet
  facet normal 0 1 0
    outer loop
      vertex 40 16 0
      vertex -40 16 10
      vertex 40 16 10
    endloop
  endfacet
  facet normal 0 0 1
    outer loop
      vertex 1.56793 -14.9178 10
      vertex -40 -16 10
      vertex 40 -16 10
    endloop
  endfacet
  facet normal 0 0 1
    outer loop
      vertex -1.56793 -14.9178 10
      vertex -4.63525 -14.2658 10
      vertex -40 -16 10
    endloop
  endfacet
  facet normal 0 0 1
    outer loop
      vertex -40 16 10
      vertex -40 -16 10
      vertex -36 -12 10
    endloop
  endfacet
  facet normal 0 0 1
    outer loop
      vertex 1.56793 14.9178 10
      vertex 4.63525 14.2658 10
      vertex 40 16 10
    endloop
  endfacet
  facet normal 0 0 1
    outer loop
      vertex -40 16 10
      vertex -36 -12 10
      vertex -36 12 10
    endloop
  endfacet
  facet normal 0 0 1
    outer loop
      vertex 7.5 -12.9904 10
      vertex 4.63525 -14.2658 10
      vertex 40 -16 10
    endloop
  endfacet
  facet normal 0 0 1
    outer loop
      vertex -7.5 12.9904 10
      vertex -40 16 10
      vertex -8.86314 12 10
    endloop
  endfacet
  facet normal 0 0 1
    outer loop
      vertex -4.63525 14.2658 10
      vertex -40 16 10
      vertex -7.5 12.9904 10
    endloop
  endfacet
  facet normal 0 0 1
    outer loop
      vertex -1.56793 14.9178 10
      vertex -40 16 10
      vertex -4.63525 14.2658 10
    endloop
  endfacet
  facet normal 0 0 1
    outer loop
      vertex 40 16 10
      vertex -40 16 10
      vertex -1.56793 14.9178 10
    endloop
  endfacet
  facet normal 0 0 1
    outer loop
      vertex 40 16 10
      vertex -1.56793 14.9178 10
      vertex 1.56793 14.9178 10
    endloop
  endfacet
  facet normal 0 0 1
    outer loop
      vertex 40 16 10
      vertex 7.5 12.9904 10
      vertex 8.86314 12 10
    endloop
  endfacet
  facet normal 0 0 1
    outer loop
      vertex 40 16 10
      vertex 36 12 10
      vertex 40 -16 10
    endloop
  endfacet
  facet normal 0 0 1
    outer loop
      vertex 40 16 10
      vertex 8.86314 12 10
      vertex 36 12 10
    endloop
  endfacet
  facet normal 0 0 1
    outer loop
      vertex 36 12 10
      vertex 36 -12 10
      vertex 40 -16 10
    endloop
  endfacet
  facet normal 0 0 1
    outer loop
      vertex 8.86314 -12 10
      vertex 7.5 -12.9904 10
      vertex 40 -16 10
    endloop
  endfacet
  facet normal 0 0 1
    outer loop
      vertex 4.63525 -14.2658 10
      vertex 1.56793 -14.9178 10
      vertex 40 -16 10
    endloop
  endfacet
  facet normal 0 0 1
    outer loop
      vertex -1.56793 -14.9178 10
      vertex -40 -16 10
      vertex 1.56793 -14.9178 10
    endloop
  endfacet
  facet normal 0 0 1
    outer loop
      vertex -4.63525 -14.2658 10
      vertex -7.5 -12.9904 10
      vertex -36 -12 10
    endloop
  endfacet
  facet normal 0 0 1
    outer loop
      vertex -7.5 -12.9904 10
      vertex -8.86314 -12 10
      vertex -36 -12 10
    endloop
  endfacet
  facet normal 0 0 1
    outer loop
      vertex -36 -12 10
      vertex -40 -16 10
      vertex -4.63525 -14.2658 10
    endloop
  endfacet
  facet normal 0 0 1
    outer loop
      vertex -36 12 10
      vertex -8.86314 12 10
      vertex -40 16 10
    endloop
  endfacet
  facet normal 0 0 1
    outer loop
      vertex 4.63525 14.2658 10
      vertex 7.5 12.9904 10
      vertex 40 16 10
    endloop
  endfacet
  facet normal 0 0 1
    outer loop
      vertex 36 -12 10
      vertex 8.86314 -12 10
      vertex 40 -16 10
    endloop
  endfacet
  facet normal 1 0 0
    outer loop
      vertex 40 -16 10
      vertex 40 -16 0
      vertex 40 16 0
    endloop
  endfacet
  facet normal 1 0 0
    outer loop
      vertex 40 16 10
      vertex 40 -16 10
      vertex 40 16 0
    endloop
  endfacet
  facet normal 0.994522 -0.104528 0
    outer loop
      vertex -9.78148 2.07912 0
      vertex -9.78148 2.07912 4
      vertex -10 0 4
    endloop
  endfacet
  facet normal 0.994522 -0.104528 0
    outer loop
      vertex -10 0 0
      vertex -9.78148 2.07912 0
      vertex -10 0 4
    endloop
  endfacet
  facet normal 0.994522 0.104528 0
    outer loop
      vertex -10 0 4
      vertex -9.78148 -2.07912 4
      vertex -9.78148 -2.07912 0
    endloop
  endfacet
  facet normal 0.994522 0.104528 0
    outer loop
      vertex -10 0 0
      vertex -10 0 4
      vertex -9.78148 -2.07912 0
    endloop
  endfacet
  facet normal 0.951057 -0.309017 0
    outer loop
      vertex -9.13546 4.06737 0
      vertex -9.13546 4.06737 4
      vertex -9.78148 2.07912 4
    endloop
  endfacet
  facet normal 0.951057 -0.309017 0
    outer loop
      vertex -9.78148 2.07912 0
      vertex -9.13546 4.06737 0
      vertex -9.78148 2.07912 4
    endloop
  endfacet
  facet normal 0.866025 -0.5 0
    outer loop
      vertex -8.09017 5.87785 0
      vertex -8.09017 5.87785 4
      vertex -9.13546 4.06737 4
    endloop
  endfacet
  facet normal 0.866025 -0.5 0
    outer loop
      vertex -9.13546 4.06737 0
      vertex -8.09017 5.87785 0
      vertex -9.13546 4.06737 4
    endloop
  endfacet
  facet normal 0.743145 -0.669131 0
    outer loop
      vertex -6.69131 7.43145 0
      vertex -6.69131 7.43145 4
      vertex -8.09017 5.87785 4
    endloop
  endfacet
  facet normal 0.743145 -0.669131 0
    outer loop
      vertex -8.09017 5.87785 0
      vertex -6.69131 7.43145 0
      vertex -8.09017 5.87785 4
    endloop
  endfacet
  facet normal 0.587785 -0.809017 0
    outer loop
      vertex -5 8.66025 0
      vertex -5 8.66025 4
      vertex -6.69131 7.43145 4
    endloop
  endfacet
  facet normal 0.587785 -0.809017 0
    outer loop
      vertex -6.69131 7.43145 0
      vertex -5 8.66025 0
      vertex -6.69131 7.43145 4
    endloop
  endfacet
  facet normal 0.406737 -0.913545 0
    outer loop
      vertex -3.09017 9.51056 0
      vertex -3.09017 9.51056 4
      vertex -5 8.66025 4
    endloop
  endfacet
  facet normal 0.406737 -0.913545 0
    outer loop
      vertex -5 8.66025 0
      vertex -3.09017 9.51056 0
      vertex -5 8.66025 4
    endloop
  endfacet
  facet normal 0.207912 -0.978148 0
    outer loop
      vertex -1.04529 9.94522 0
      vertex -1.04529 9.94522 4
      vertex -3.09017 9.51056 4
    endloop
  endfacet
  facet normal 0.207912 -0.978148 0
    outer loop
      vertex -3.09017 9.51056 0
      vertex -1.04529 9.94522 0
      vertex -3.09017 9.51056 4
    endloop
  endfacet
  facet normal 0 -1 0
    outer loop
      vertex 1.04529 9.94522 0
      vertex 1.04529 9.94522 4
      vertex -1.04529 9.94522 4
    endloop
  endfacet
  facet normal 0 -1 0
    outer loop
      vertex -1.04529 9.94522 0
      vertex 1.04529 9.94522 0
      vertex -1.04529 9.94522 4
    endloop
  endfacet
  facet normal -0.207912 -0.978148 0
    outer loop
      vertex 3.09017 9.51056 0
      vertex 3.09017 9.51056 4
      vertex 1.04529 9.94522 4
    endloop
  endfacet
  facet normal -0.207912 -0.978148 0
    outer loop
      vertex 1.04529 9.94522 0
      vertex 3.09017 9.51056 0
      vertex 1.04529 9.94522 4
    endloop
  endfacet
  facet normal -0.406737 -0.913545 0
    outer loop
      vertex 5 8.66025 0
      vertex 5 8.66025 4
      vertex 3.09017 9.51056 4
    endloop
  endfacet
  facet normal -0.406737 -0.913545 0
    outer loop
      vertex 3.09017 9.51056 0
      vertex 5 8.66025 0
      vertex 3.09017 9.51056 4
    endloop
  endfacet
  facet normal -0.587785 -0.809017 0
    outer loop
      vertex 6.69131 7.43145 0
      vertex 6.69131 7.43145 4
      vertex 5 8.66025 4
    endloop
  endfacet
  facet normal -0.587785 -0.809017 0
    outer loop
      vertex 5 8.66025 0
      vertex 6.69131 7.43145 0
      vertex 5 8.66025 4
    endloop
  endfacet
  facet normal -0.743145 -0.669131 0
    outer loop
      vertex 8.09017 5.87785 4
      vertex 6.69131 7.43145 4
      vertex 8.09017 5.87785 0
    endloop
  endfacet
  facet normal -0.743145 -0.669131 0
    outer loop
      vertex 8.09017 5.87785 0
      vertex 6.69131 7.43145 4
      vertex 6.69131 7.43145 0
    endloop
  endfacet
  facet normal -0.866025 -0.5 0
    outer loop
      vertex 9.13546 4.06737 4
      vertex 8.09017 5.87785 4
      vertex 9.13546 4.06737 0
    endloop
  endfacet
  facet normal -0.866025 -0.5 0
    outer loop
      vertex 9.13546 4.06737 0
      vertex 8.09017 5.87785 4
      vertex 8.09017 5.87785 0
    endloop
  endfacet
  facet normal -0.951057 -0.309017 0
    outer loop
      vertex 9.78148 2.07912 4
      vertex 9.13546 4.06737 4
      vertex 9.78148 2.07912 0
    endloop
  endfacet
  facet normal -0.951057 -0.309017 0
    outer loop
      vertex 9.78148 2.07912 0
      vertex 9.13546 4.06737 4
      vertex 9.13546 4.06737 0
    endloop
  endfacet
  facet normal -0.994522 -0.104528 0
    outer loop
      vertex 10 0 4
      vertex 9.78148 2.07912 4
      vertex 10 0 0
    endloop
  endfacet
  facet normal -0.994522 -0.104528 0
    outer loop
      vertex 10 0 0
      vertex 9.78148 2.07912 4
      vertex 9.78148 2.07912 0
    endloop
  endfacet
  facet normal -0.994522 0.104528 0
    outer loop
      vertex 10 0 4
      vertex 10 0 0
      vertex 9.78148 -2.07912 4
    endloop
  endfacet
  facet normal -0.994522 0.104528 0
    outer loop
      vertex 9.78148 -2.07912 4
      vertex 10 0 0
      vertex 9.78148 -2.07912 0
    endloop
  endfacet
  facet normal -0.951057 0.309017 0
    outer loop
      vertex 9.78148 -2.07912 4
      vertex 9.78148 -2.07912 0
      vertex 9.13546 -4.06737 4
    endloop
  endfacet
  facet normal -0.951057 0.309017 0
    outer loop
      vertex 9.13546 -4.06737 4
      vertex 9.78148 -2.07912 0
      vertex 9.13546 -4.06737 0
    endloop
  endfacet
  facet normal -0.866025 0.5 0
    outer loop
      vertex 9.13546 -4.06737 4
      vertex 9.13546 -4.06737 0
      vertex 8.09017 -5.87785 4
    endloop
  endfacet
  facet normal -0.866025 0.5 0
    outer loop
      vertex 8.09017 -5.87785 4
      vertex 9.13546 -4.06737 0
      vertex 8.09017 -5.87785 0
    endloop
  endfacet
  facet normal -0.743145 0.669131 0
    outer loop
      vertex 8.09017 -5.87785 4
      vertex 8.09017 -5.87785 0
      vertex 6.69131 -7.43145 4
    endloop
  endfacet
  facet normal -0.743145 0.669131 0
    outer loop
      vertex 6.69131 -7.43145 4
      vertex 8.09017 -5.87785 0
      vertex 6.69131 -7.43145 0
    endloop
  endfacet
  facet normal -0.587785 0.809017 0
    outer loop
      vertex 6.69131 -7.43145 4
      vertex 6.69131 -7.43145 0
      vertex 5 -8.66025 4
    endloop
  endfacet
  facet normal -0.587785 0.809017 0
    outer loop
      vertex 5 -8.66025 4
      vertex 6.69131 -7.43145 0
      vertex 5 -8.66025 0
    endloop
  endfacet
  facet normal -0.406737 0.913545 0
    outer loop
      vertex 5 -8.66025 4
      vertex 5 -8.66025 0
      vertex 3.09017 -9.51056 4
    endloop
  endfacet
  facet normal -0.406737 0.913545 0
    outer loop
      vertex 3.09017 -9.51056 4
      vertex 5 -8.66025 0
      vertex 3.09017 -9.51056 0
    endloop
  endfacet
  facet normal -0.207912 0.978148 0
    outer loop
      vertex 3.09017 -9.51056 4
      vertex 3.09017 -9.51056 0
      vertex 1.04529 -9.94522 4
    endloop
  endfacet
  facet normal -0.207912 0.978148 0
    outer loop
      vertex 1.04529 -9.94522 4
      vertex 3.09017 -9.51056 0
      vertex 1.04529 -9.94522 0
    endloop
  endfacet
  facet normal 0 1 0
    outer loop
      vertex 1.04529 -9.94522 4
      vertex 1.04529 -9.94522 0
      vertex -1.04529 -9.94522 4
    endloop
  endfacet
  facet normal 0 1 0
    outer loop
      vertex -1.04529 -9.94522 4
      vertex 1.04529 -9.94522 0
      vertex -1.04529 -9.94522 0
    endloop
  endfacet
  facet normal 0.207912 0.978148 0
    outer loop
      vertex -1.04529 -9.94522 4
      vertex -1.04529 -9.94522 0
      vertex -3.09017 -9.51056 4
    endloop
  endfacet
  facet normal 0.207912 0.978148 0
    outer loop
      vertex -3.09017 -9.51056 4
      vertex -1.04529 -9.94522 0
      vertex -3.09017 -9.51056 0
    endloop
  endfacet
  facet normal 0.406737 0.913545 0
    outer loop
      vertex -3.09017 -9.51056 4
      vertex -3.09017 -9.51056 0
      vertex -5 -8.66025 4
    endloop
  endfacet
  facet normal 0.406737 0.913545 0
    outer loop
      vertex -5 -8.66025 4
      vertex -3.09017 -9.51056 0
      vertex -5 -8.66025 0
    endloop
  endfacet
  facet normal 0.587785 0.809017 0
    outer loop
      vertex -5 -8.66025 4
      vertex -5 -8.66025 0
      vertex -6.69131 -7.43145 4
    endloop
  endfacet
  facet normal 0.587785 0.809017 0
    outer loop
      vertex -6.69131 -7.43145 4
      vertex -5 -8.66025 0
      vertex -6.69131 -7.43145 0
    endloop
  endfacet
  facet normal 0.743145 0.669131 0
    outer loop
      vertex -8.09017 -5.87785 4
      vertex -6.69131 -7.43145 4
      vertex -6.69131 -7.43145 0
    endloop
  endfacet
  facet normal 0.743145 0.669131 0
    outer loop
      vertex -8.09017 -5.87785 0
      vertex -8.09017 -5.87785 4
      vertex -6.69131 -7.43145 0
    endloop
  endfacet
  facet normal 0.866025 0.5 0
    outer loop
      vertex -9.13546 -4.06737 4
      vertex -8.09017 -5.87785 4
      vertex -8.09017 -5.87785 0
    endloop
  endfacet
  facet normal 0.866025 0.5 0
    outer loop
      vertex -9.13546 -4.06737 0
      vertex -9.13546 -4.06737 4
      vertex -8.09017 -5.87785 0
    endloop
  endfacet
  facet normal 0.951057 0.309017 0
    outer loop
      vertex -9.78148 -2.07912 4
      vertex -9.13546 -4.06737 4
      vertex -9.13546 -4.06737 0
    endloop
  endfacet
  facet normal 0.951057 0.309017 0
    outer loop
      vertex -9.78148 -2.07912 0
      vertex -9.78148 -2.07912 4
      vertex -9.13546 -4.06737 0
    endloop
  endfacet
  facet normal 1 0 0
    outer loop
      vertex -36 12 4
      vertex -36 12 10
      vertex -36 -12 10
    endloop
  endfacet
  facet normal 1 0 0
    outer loop
      vertex -36 -12 4
      vertex -36 12 4
      vertex -36 -12 10
    endloop
  endfacet
  facet normal 0 1 0
    outer loop
      vertex -8.86314 -12 10
      vertex -8.86314 -12 4
      vertex -36 -12 10
    endloop
  endfacet
  facet normal 0 1 0
    outer loop
      vertex -36 -12 10
      vertex -8.86314 -12 4
      vertex -36 -12 4
    endloop
  endfacet
  facet normal -0.587785 -0.809017 0
    outer loop
      vertex -10.037 -11.1472 33
      vertex -10.037 -11.1472 4
      vertex -8.86314 -12 4
    endloop
  endfacet
  facet normal -0.587785 -0.809017 0
    outer loop
      vertex -7.5 -12.9904 10
      vertex -10.037 -11.1472 33
      vertex -8.86314 -12 10
    endloop
  endfacet
  facet normal -0.587785 -0.809017 0
    outer loop
      vertex -8.86314 -12 10
      vertex -10.037 -11.1472 33
      vertex -8.86314 -12 4
    endloop
  endfacet
  facet normal -0.587785 -0.809017 0
    outer loop
      vertex -7.5 -12.9904 33
      vertex -10.037 -11.1472 33
      vertex -7.5 -12.9904 10
    endloop
  endfacet
  facet normal -0.406737 -0.913545 0
    outer loop
      vertex -7.5 -12.9904 33
      vertex -7.5 -12.9904 10
      vertex -4.63525 -14.2658 10
    endloop
  endfacet
  facet normal -0.406737 -0.913545 0
    outer loop
      vertex -4.63525 -14.2658 33
      vertex -7.5 -12.9904 33
      vertex -4.63525 -14.2658 10
    endloop
  endfacet
  facet normal -0.207911 -0.978148 0
    outer loop
      vertex -4.63525 -14.2658 33
      vertex -4.63525 -14.2658 10
      vertex -1.56793 -14.9178 10
    endloop
  endfacet
  facet normal -0.207911 -0.978148 0
    outer loop
      vertex -1.56793 -14.9178 33
      vertex -4.63525 -14.2658 33
      vertex -1.56793 -14.9178 10
    endloop
  endfacet
  facet normal 0 -1 0
    outer loop
      vertex -1.56793 -14.9178 33
      vertex -1.56793 -14.9178 10
      vertex 1.56793 -14.9178 10
    endloop
  endfacet
  facet normal 0 -1 0
    outer loop
      vertex 1.56793 -14.9178 33
      vertex -1.56793 -14.9178 33
      vertex 1.56793 -14.9178 10
    endloop
  endfacet
  facet normal 0.207911 -0.978148 0
    outer loop
      vertex 1.56793 -14.9178 33
      vertex 1.56793 -14.9178 10
      vertex 4.63525 -14.2658 10
    endloop
  endfacet
  facet normal 0.207911 -0.978148 0
    outer loop
      vertex 4.63525 -14.2658 33
      vertex 1.56793 -14.9178 33
      vertex 4.63525 -14.2658 10
    endloop
  endfacet
  facet normal 0.406737 -0.913545 0
    outer loop
      vertex 4.63525 -14.2658 33
      vertex 4.63525 -14.2658 10
      vertex 7.5 -12.9904 10
    endloop
  endfacet
  facet normal 0.406737 -0.913545 0
    outer loop
      vertex 7.5 -12.9904 33
      vertex 4.63525 -14.2658 33
      vertex 7.5 -12.9904 10
    endloop
  endfacet
  facet normal 0.587785 -0.809017 0
    outer loop
      vertex 7.5 -12.9904 33
      vertex 7.5 -12.9904 10
      vertex 8.86314 -12 10
    endloop
  endfacet
  facet normal 0.587785 -0.809017 0
    outer loop
      vertex 10.037 -11.1472 4
      vertex 7.5 -12.9904 33
      vertex 8.86314 -12 10
    endloop
  endfacet
  facet normal 0.587785 -0.809017 0
    outer loop
      vertex 8.86314 -12 4
      vertex 10.037 -11.1472 4
      vertex 8.86314 -12 10
    endloop
  endfacet
  facet normal 0.587785 -0.809017 0
    outer loop
      vertex 10.037 -11.1472 4
      vertex 10.037 -11.1472 33
      vertex 7.5 -12.9904 33
    endloop
  endfacet
  facet normal 0 1 0
    outer loop
      vertex 36 -12 10
      vertex 36 -12 4
      vertex 8.86314 -12 10
    endloop
  endfacet
  facet normal 0 1 0
    outer loop
      vertex 8.86314 -12 10
      vertex 36 -12 4
      vertex 8.86314 -12 4
    endloop
  endfacet
  facet normal -1 0 0
    outer loop
      vertex 36 12 10
      vertex 36 12 4
      vertex 36 -12 10
    endloop
  endfacet
  facet normal -1 0 0
    outer loop
      vertex 36 -12 10
      vertex 36 12 4
      vertex 36 -12 4
    endloop
  endfacet
  facet normal 0 -1 0
    outer loop
      vertex 36 12 4
      vertex 36 12 10
      vertex 8.86314 12 10
    endloop
  endfacet
  facet normal 0 -1 0
    outer loop
      vertex 8.86314 12 4
      vertex 36 12 4
      vertex 8.86314 12 10
    endloop
  endfacet
  facet normal 0.587785 0.809017 0
    outer loop
      vertex 7.5 12.9904 10
      vertex 7.5 12.9904 33
      vertex 8.86314 12 10
    endloop
  endfacet
  facet normal 0.587785 0.809017 0
    outer loop
      vertex 8.86314 12 10
      vertex 7.5 12.9904 33
      vertex 10.037 11.1472 33
    endloop
  endfacet
  facet normal 0.587785 0.809017 0
    outer loop
      vertex 8.86314 12 10
      vertex 10.037 11.1472 33
      vertex 10.037 11.1472 4
    endloop
  endfacet
  facet normal 0.587785 0.809017 0
    outer loop
      vertex 8.86314 12 10
      vertex 10.037 11.1472 4
      vertex 8.86314 12 4
    endloop
  endfacet
  facet normal 0.406737 0.913545 0
    outer loop
      vertex 4.63525 14.2658 10
      vertex 4.63525 14.2658 33
      vertex 7.5 12.9904 10
    endloop
  endfacet
  facet normal 0.406737 0.913545 0
    outer loop
      vertex 7.5 12.9904 10
      vertex 4.63525 14.2658 33
      vertex 7.5 12.9904 33
    endloop
  endfacet
  facet normal 0.207911 0.978148 0
    outer loop
      vertex 1.56793 14.9178 10
      vertex 1.56793 14.9178 33
      vertex 4.63525 14.2658 10
    endloop
  endfacet
  facet normal 0.207911 0.978148 0
    outer loop
      vertex 4.63525 14.2658 10
      vertex 1.56793 14.9178 33
      vertex 4.63525 14.2658 33
    endloop
  endfacet
  facet normal 0 1 0
    outer loop
      vertex -1.56793 14.9178 10
      vertex -1.56793 14.9178 33
      vertex 1.56793 14.9178 10
    endloop
  endfacet
  facet normal 0 1 0
    outer loop
      vertex 1.56793 14.9178 10
      vertex -1.56793 14.9178 33
      vertex 1.56793 14.9178 33
    endloop
  endfacet
  facet normal -0.207911 0.978148 0
    outer loop
      vertex -4.63525 14.2658 10
      vertex -4.63525 14.2658 33
      vertex -1.56793 14.9178 10
    endloop
  endfacet
  facet normal -0.207911 0.978148 0
    outer loop
      vertex -1.56793 14.9178 10
      vertex -4.63525 14.2658 33
      vertex -1.56793 14.9178 33
    endloop
  endfacet
  facet normal -0.406737 0.913545 0
    outer loop
      vertex -7.5 12.9904 10
      vertex -7.5 12.9904 33
      vertex -4.63525 14.2658 10
    endloop
  endfacet
  facet normal -0.406737 0.913545 0
    outer loop
      vertex -4.63525 14.2658 10
      vertex -7.5 12.9904 33
      vertex -4.63525 14.2658 33
    endloop
  endfacet
  facet normal -0.587785 0.809017 0
    outer loop
      vertex -10.037 11.1472 4
      vertex -10.037 11.1472 33
      vertex -8.86314 12 4
    endloop
  endfacet
  facet normal -0.587785 0.809017 0
    outer loop
      vertex -8.86314 12 10
      vertex -10.037 11.1472 33
      vertex -7.5 12.9904 33
    endloop
  endfacet
  facet normal -0.587785 0.809017 0
    outer loop
      vertex -8.86314 12 4
      vertex -10.037 11.1472 33
      vertex -8.86314 12 10
    endloop
  endfacet
  facet normal -0.587785 0.809017 0
    outer loop
      vertex -8.86314 12 10
      vertex -7.5 12.9904 33
      vertex -7.5 12.9904 10
    endloop
  endfacet
  facet normal 0 -1 0
    outer loop
      vertex -8.86314 12 4
      vertex -8.86314 12 10
      vertex -36 12 10
    endloop
  endfacet
  facet normal 0 -1 0
    outer loop
      vertex -36 12 4
      vertex -8.86314 12 4
      vertex -36 12 10
    endloop
  endfacet
  facet normal 0 0 1
    outer loop
      vertex -11.2487 -2.39098 4
      vertex -10.5058 -4.67747 4
      vertex -9.50956 -6.40295 4
    endloop
  endfacet
  facet normal 0 0 1
    outer loop
      vertex -7.91274 -7.64124 4
      vertex -11.2487 -2.39098 4
      vertex -9.30205 -6.20256 4
    endloop
  endfacet
  facet normal 0 0 1
    outer loop
      vertex -9.30205 -6.20256 4
      vertex -11.2487 -2.39098 4
      vertex -9.50956 -6.40295 4
    endloop
  endfacet
  facet normal 0 0 1
    outer loop
      vertex -5.75 -9.95929 4
      vertex -11.2487 -2.39098 4
      vertex -7.91274 -7.64124 4
    endloop
  endfacet
  facet normal 0 0 1
    outer loop
      vertex -7.695 -8.54617 4
      vertex -7.91274 -7.64124 4
      vertex -8.23211 -7.94965 4
    endloop
  endfacet
  facet normal 0 0 1
    outer loop
      vertex -5.75 -9.95929 4
      vertex -7.91274 -7.64124 4
      vertex -7.695 -8.54617 4
    endloop
  endfacet
  facet normal 0 0 1
    outer loop
      vertex -3.55369 -10.9371 4
      vertex -11.2487 -2.39098 4
      vertex -5.75 -9.95929 4
    endloop
  endfacet
  facet normal 0 0 1
    outer loop
      vertex -6.69131 -7.43145 4
      vertex -11.2487 -2.39098 4
      vertex -3.55369 -10.9371 4
    endloop
  endfacet
  facet normal 0 0 1
    outer loop
      vertex -3.09017 -9.51056 4
      vertex -5 -8.66025 4
      vertex -1.20208 -11.437 4
    endloop
  endfacet
  facet normal 0 0 1
    outer loop
      vertex 1.04529 -9.94522 4
      vertex -1.04529 -9.94522 4
      vertex 1.20208 -11.437 4
    endloop
  endfacet
  facet normal 0 0 1
    outer loop
      vertex 3.09017 -9.51056 4
      vertex 1.04529 -9.94522 4
      vertex 3.55369 -10.9371 4
    endloop
  endfacet
  facet normal 0 0 1
    outer loop
      vertex 5 -8.66025 4
      vertex 3.09017 -9.51056 4
      vertex 5.75 -9.95929 4
    endloop
  endfacet
  facet normal 0 0 1
    outer loop
      vertex -8.09017 -5.87785 4
      vertex -9.13546 -4.06737 4
      vertex -11.2487 -2.39098 4
    endloop
  endfacet
  facet normal 0 0 1
    outer loop
      vertex 6.69131 -7.43145 4
      vertex 7.695 -8.54617 4
      vertex 8.23211 -7.94965 4
    endloop
  endfacet
  facet normal 0 0 1
    outer loop
      vertex 6.69131 -7.43145 4
      vertex 5 -8.66025 4
      vertex 7.695 -8.54617 4
    endloop
  endfacet
  facet normal 0 0 1
    outer loop
      vertex 10.5058 -4.67747 4
      vertex 9.30205 -6.20256 4
      vertex 9.50956 -6.40295 4
    endloop
  endfacet
  facet normal 0 0 1
    outer loop
      vertex 8.09017 -5.87785 4
      vertex 7.91274 -7.64124 4
      vertex 9.30205 -6.20256 4
    endloop
  endfacet
  facet normal 0 0 1
    outer loop
      vertex 9.13546 -4.06737 4
      vertex 8.09017 -5.87785 4
      vertex 10.5058 -4.67747 4
    endloop
  endfacet
  facet normal 0 0 1
    outer loop
      vertex 9.78148 -2.07912 4
      vertex 9.13546 -4.06737 4
      vertex 11.2487 -2.39098 4
    endloop
  endfacet
  facet normal 0 0 1
    outer loop
      vertex 8.09017 -5.87785 4
      vertex 6.69131 -7.43145 4
      vertex 7.91274 -7.64124 4
    endloop
  endfacet
  facet normal 0 0 1
    outer loop
      vertex 11 0 4
      vertex 9.78148 -2.07912 4
      vertex 11.5 0 4
    endloop
  endfacet
  facet normal 0 0 1
    outer loop
      vertex 11.2487 2.39098 4
      vertex 11 2 4
      vertex 11.2898 2 4
    endloop
  endfacet
  facet normal 0 0 1
    outer loop
      vertex -8.09017 5.87785 4
      vertex -5.75 9.95929 4
      vertex -6.52342 9.07992 4
    endloop
  endfacet
  facet normal 0 0 1
    outer loop
      vertex 8.23211 7.94965 4
      vertex 7.91274 7.64124 4
      vertex 9.30369 6.75953 4
    endloop
  endfacet
  facet normal 0 0 1
    outer loop
      vertex -6.52342 9.07992 4
      vertex -7.91274 7.64124 4
      vertex -8.09017 5.87785 4
    endloop
  endfacet
  facet normal 0 0 1
    outer loop
      vertex -10 0 4
      vertex -9.78148 2.07912 4
      vertex -11.2487 -2.39098 4
    endloop
  endfacet
  facet normal 0 0 1
    outer loop
      vertex 5 8.66025 4
      vertex 6.69131 7.43145 4
      vertex 6.52342 9.07992 4
    endloop
  endfacet
  facet normal 0 0 1
    outer loop
      vertex -8.09017 5.87785 4
      vertex -6.69131 7.43145 4
      vertex -5.75 9.95929 4
    endloop
  endfacet
  facet normal 0 0 1
    outer loop
      vertex -11.2898 2 4
      vertex -11 2 4
      vertex -11.2487 2.39098 4
    endloop
  endfacet
  facet normal 0 0 1
    outer loop
      vertex -6.71101 9.26108 4
      vertex -6.52342 9.07992 4
      vertex -5.75 9.95929 4
    endloop
  endfacet
  facet normal 0 0 1
    outer loop
      vertex -11 0 4
      vertex -11.5 0 4
      vertex -11.2487 -2.39098 4
    endloop
  endfacet
  facet normal 0 0 1
    outer loop
      vertex -9.30369 6.75953 4
      vertex -11.2487 -2.39098 4
      vertex -8.23211 7.94965 4
    endloop
  endfacet
  facet normal 0 0 1
    outer loop
      vertex -10.5058 4.67747 4
      vertex -11.2487 -2.39098 4
      vertex -9.30369 6.75953 4
    endloop
  endfacet
  facet normal 0 0 1
    outer loop
      vertex -11 0 4
      vertex -11.2487 -2.39098 4
      vertex -10.5058 4.67747 4
    endloop
  endfacet
  facet normal 0 0 1
    outer loop
      vertex -11.2487 2.39098 4
      vertex -11 2 4
      vertex -10.5058 4.67747 4
    endloop
  endfacet
  facet normal 0 0 1
    outer loop
      vertex -11 2 4
      vertex -11 0 4
      vertex -10.5058 4.67747 4
    endloop
  endfacet
  facet normal 0 0 1
    outer loop
      vertex -3.09017 9.51056 4
      vertex -1.04529 9.94522 4
      vertex -1.20208 11.437 4
    endloop
  endfacet
  facet normal 0 0 1
    outer loop
      vertex -8.23211 7.94965 4
      vertex -11.2487 -2.39098 4
      vertex -9.78148 2.07912 4
    endloop
  endfacet
  facet normal 0 0 1
    outer loop
      vertex -8.23211 7.94965 4
      vertex -9.13546 4.06737 4
      vertex -7.91274 7.64124 4
    endloop
  endfacet
  facet normal 0 0 1
    outer loop
      vertex -8.23211 7.94965 4
      vertex -9.78148 2.07912 4
      vertex -9.13546 4.06737 4
    endloop
  endfacet
  facet normal 0 0 1
    outer loop
      vertex -1.04529 9.94522 4
      vertex 1.04529 9.94522 4
      vertex 1.20208 11.437 4
    endloop
  endfacet
  facet normal 0 0 1
    outer loop
      vertex -9.13546 4.06737 4
      vertex -8.09017 5.87785 4
      vertex -7.91274 7.64124 4
    endloop
  endfacet
  facet normal 0 0 1
    outer loop
      vertex -5.75 9.95929 4
      vertex -6.69131 7.43145 4
      vertex -3.55369 10.9371 4
    endloop
  endfacet
  facet normal 0 0 1
    outer loop
      vertex -6.69131 7.43145 4
      vertex -5 8.66025 4
      vertex -3.55369 10.9371 4
    endloop
  endfacet
  facet normal 0 0 1
    outer loop
      vertex -3.55369 10.9371 4
      vertex -3.09017 9.51056 4
      vertex -1.20208 11.437 4
    endloop
  endfacet
  facet normal 0 0 1
    outer loop
      vertex 9.78148 2.07912 4
      vertex 10 0 4
      vertex 11 2 4
    endloop
  endfacet
  facet normal 0 0 1
    outer loop
      vertex -1.20208 11.437 4
      vertex -1.04529 9.94522 4
      vertex 1.20208 11.437 4
    endloop
  endfacet
  facet normal 0 0 1
    outer loop
      vertex -5 8.66025 4
      vertex -3.09017 9.51056 4
      vertex -3.55369 10.9371 4
    endloop
  endfacet
  facet normal 0 0 1
    outer loop
      vertex 1.20208 11.437 4
      vertex 1.04529 9.94522 4
      vertex 3.55369 10.9371 4
    endloop
  endfacet
  facet normal 0 0 1
    outer loop
      vertex 3.55369 10.9371 4
      vertex 3.09017 9.51056 4
      vertex 5.75 9.95929 4
    endloop
  endfacet
  facet normal 0 0 1
    outer loop
      vertex 5.75 9.95929 4
      vertex 5 8.66025 4
      vertex 6.71101 9.26108 4
    endloop
  endfacet
  facet normal 0 0 1
    outer loop
      vertex -9.13546 -4.06737 4
      vertex -9.78148 -2.07912 4
      vertex -11.2487 -2.39098 4
    endloop
  endfacet
  facet normal 0 0 1
    outer loop
      vertex 9.30369 6.75953 4
      vertex 8.09017 5.87785 4
      vertex 10.5058 4.67747 4
    endloop
  endfacet
  facet normal 0 0 1
    outer loop
      vertex 10.5058 4.67747 4
      vertex 9.13546 4.06737 4
      vertex 11.2487 2.39098 4
    endloop
  endfacet
  facet normal 0 0 1
    outer loop
      vertex 9.13546 4.06737 4
      vertex 9.78148 2.07912 4
      vertex 11.2487 2.39098 4
    endloop
  endfacet
  facet normal 0 0 1
    outer loop
      vertex 11 2 4
      vertex 10 0 4
      vertex 11 0 4
    endloop
  endfacet
  facet normal 0 0 1
    outer loop
      vertex 11.5 0 4
      vertex 9.78148 -2.07912 4
      vertex 11.2487 -2.39098 4
    endloop
  endfacet
  facet normal 0 0 1
    outer loop
      vertex 11.2487 -2.39098 4
      vertex 9.13546 -4.06737 4
      vertex 10.5058 -4.67747 4
    endloop
  endfacet
  facet normal 0 0 1
    outer loop
      vertex 10.5058 -4.67747 4
      vertex 8.09017 -5.87785 4
      vertex 9.30205 -6.20256 4
    endloop
  endfacet
  facet normal 0 0 1
    outer loop
      vertex 7.91274 -7.64124 4
      vertex 6.69131 -7.43145 4
      vertex 8.23211 -7.94965 4
    endloop
  endfacet
  facet normal 0 0 1
    outer loop
      vertex 7.695 -8.54617 4
      vertex 5 -8.66025 4
      vertex 5.75 -9.95929 4
    endloop
  endfacet
  facet normal 0 0 1
    outer loop
      vertex 5.75 -9.95929 4
      vertex 3.09017 -9.51056 4
      vertex 3.55369 -10.9371 4
    endloop
  endfacet
  facet normal 0 0 1
    outer loop
      vertex 3.55369 -10.9371 4
      vertex 1.04529 -9.94522 4
      vertex 1.20208 -11.437 4
    endloop
  endfacet
  facet normal 0 0 1
    outer loop
      vertex 1.20208 -11.437 4
      vertex -1.04529 -9.94522 4
      vertex -1.20208 -11.437 4
    endloop
  endfacet
  facet normal 0 0 1
    outer loop
      vertex -1.04529 -9.94522 4
      vertex -3.09017 -9.51056 4
      vertex -1.20208 -11.437 4
    endloop
  endfacet
  facet normal 0 0 1
    outer loop
      vertex -1.20208 -11.437 4
      vertex -5 -8.66025 4
      vertex -3.55369 -10.9371 4
    endloop
  endfacet
  facet normal 0 0 1
    outer loop
      vertex -5 -8.66025 4
      vertex -6.69131 -7.43145 4
      vertex -3.55369 -10.9371 4
    endloop
  endfacet
  facet normal 0 0 1
    outer loop
      vertex -8.09017 -5.87785 4
      vertex -11.2487 -2.39098 4
      vertex -6.69131 -7.43145 4
    endloop
  endfacet
  facet normal 0 0 1
    outer loop
      vertex 10 0 4
      vertex 9.78148 -2.07912 4
      vertex 11 0 4
    endloop
  endfacet
  facet normal 0 0 1
    outer loop
      vertex 7.91274 7.64124 4
      vertex 6.52342 9.07992 4
      vertex 6.69131 7.43145 4
    endloop
  endfacet
  facet normal 0 0 1
    outer loop
      vertex 1.04529 9.94522 4
      vertex 3.09017 9.51056 4
      vertex 3.55369 10.9371 4
    endloop
  endfacet
  facet normal 0 0 1
    outer loop
      vertex 3.09017 9.51056 4
      vertex 5 8.66025 4
      vertex 5.75 9.95929 4
    endloop
  endfacet
  facet normal 0 0 1
    outer loop
      vertex 5 8.66025 4
      vertex 6.52342 9.07992 4
      vertex 6.71101 9.26108 4
    endloop
  endfacet
  facet normal 0 0 1
    outer loop
      vertex 6.69131 7.43145 4
      vertex 8.09017 5.87785 4
      vertex 9.30369 6.75953 4
    endloop
  endfacet
  facet normal 0 0 1
    outer loop
      vertex 6.69131 7.43145 4
      vertex 9.30369 6.75953 4
      vertex 7.91274 7.64124 4
    endloop
  endfacet
  facet normal 0 0 1
    outer loop
      vertex 9.78148 2.07912 4
      vertex 11 2 4
      vertex 11.2487 2.39098 4
    endloop
  endfacet
  facet normal 0 0 1
    outer loop
      vertex 8.09017 5.87785 4
      vertex 9.13546 4.06737 4
      vertex 10.5058 4.67747 4
    endloop
  endfacet
  facet normal 0 0 1
    outer loop
      vertex -9.78148 -2.07912 4
      vertex -10 0 4
      vertex -11.2487 -2.39098 4
    endloop
  endfacet
  facet normal 0 0 1
    outer loop
      vertex -36 12 4
      vertex -10.037 -11.1472 4
      vertex -12.1353 -8.81678 4
    endloop
  endfacet
  facet normal 0 0 1
    outer loop
      vertex -14.6722 -3.11867 4
      vertex -36 12 4
      vertex -13.7032 -6.10105 4
    endloop
  endfacet
  facet normal 0 0 1
    outer loop
      vertex -13.7032 -6.10105 4
      vertex -36 12 4
      vertex -12.1353 -8.81678 4
    endloop
  endfacet
  facet normal 0 0 1
    outer loop
      vertex -8.86314 -12 4
      vertex -10.037 -11.1472 4
      vertex -36 -12 4
    endloop
  endfacet
  facet normal 0 0 1
    outer loop
      vertex -15 0 4
      vertex -36 12 4
      vertex -14.6722 -3.11867 4
    endloop
  endfacet
  facet normal 0 0 1
    outer loop
      vertex -14.6722 3.11867 4
      vertex -36 12 4
      vertex -15 0 4
    endloop
  endfacet
  facet normal 0 0 1
    outer loop
      vertex -13.7032 6.10105 4
      vertex -36 12 4
      vertex -14.6722 3.11867 4
    endloop
  endfacet
  facet normal 0 0 1
    outer loop
      vertex -12.1353 8.81678 4
      vertex -36 12 4
      vertex -13.7032 6.10105 4
    endloop
  endfacet
  facet normal 0 0 1
    outer loop
      vertex -10.037 11.1472 4
      vertex -36 12 4
      vertex -12.1353 8.81678 4
    endloop
  endfacet
  facet normal 0 0 1
    outer loop
      vertex -8.86314 12 4
      vertex -36 12 4
      vertex -10.037 11.1472 4
    endloop
  endfacet
  facet normal 0 0 1
    outer loop
      vertex -36 12 4
      vertex -36 -12 4
      vertex -10.037 -11.1472 4
    endloop
  endfacet
  facet normal 0 0 1
    outer loop
      vertex -14.6722 3.11867 33
      vertex -15 0 33
      vertex -14.6722 -3.11867 33
    endloop
  endfacet
  facet normal 0 0 1
    outer loop
      vertex -12.1353 -8.81678 33
      vertex -14.6722 3.11867 33
      vertex -13.7032 -6.10105 33
    endloop
  endfacet
  facet normal 0 0 1
    outer loop
      vertex -13.7032 -6.10105 33
      vertex -14.6722 3.11867 33
      vertex -14.6722 -3.11867 33
    endloop
  endfacet
  facet normal 0 0 1
    outer loop
      vertex -10.037 -11.1472 33
      vertex -14.6722 3.11867 33
      vertex -12.1353 -8.81678 33
    endloop
  endfacet
  facet normal 0 0 1
    outer loop
      vertex -7.5 -12.9904 33
      vertex -14.6722 3.11867 33
      vertex -10.037 -11.1472 33
    endloop
  endfacet
  facet normal 0 0 1
    outer loop
      vertex -10.5058 -4.67747 33
      vertex -14.6722 3.11867 33
      vertex -7.5 -12.9904 33
    endloop
  endfacet
  facet normal 0 0 1
    outer loop
      vertex 8.23211 -7.94965 33
      vertex 7.695 -8.54617 33
      vertex 10.037 -11.1472 33
    endloop
  endfacet
  facet normal 0 0 1
    outer loop
      vertex -1.20208 -11.437 33
      vertex -3.55369 -10.9371 33
      vertex 1.56793 -14.9178 33
    endloop
  endfacet
  facet normal 0 0 1
    outer loop
      vertex 9.50956 -6.40295 33
      vertex 7.91274 -7.64124 33
      vertex 12.1353 -8.81678 33
    endloop
  endfacet
  facet normal 0 0 1
    outer loop
      vertex 11 2 33
      vertex 11.5 0 33
      vertex 15 0 33
    endloop
  endfacet
  facet normal 0 0 1
    outer loop
      vertex -10.5058 4.67747 33
      vertex -9.30369 6.75953 33
      vertex -14.6722 3.11867 33
    endloop
  endfacet
  facet normal 0 0 1
    outer loop
      vertex -9.30369 6.75953 33
      vertex -8.23211 7.94965 33
      vertex -14.6722 3.11867 33
    endloop
  endfacet
  facet normal 0 0 1
    outer loop
      vertex -6.52342 9.07992 33
      vertex -6.71101 9.26108 33
      vertex -8.23211 7.94965 33
    endloop
  endfacet
  facet normal 0 0 1
    outer loop
      vertex -4.63525 14.2658 33
      vertex -14.6722 3.11867 33
      vertex -1.56793 14.9178 33
    endloop
  endfacet
  facet normal 0 0 1
    outer loop
      vertex -7.5 12.9904 33
      vertex -14.6722 3.11867 33
      vertex -4.63525 14.2658 33
    endloop
  endfacet
  facet normal 0 0 1
    outer loop
      vertex -10.037 11.1472 33
      vertex -14.6722 3.11867 33
      vertex -7.5 12.9904 33
    endloop
  endfacet
  facet normal 0 0 1
    outer loop
      vertex -12.1353 8.81678 33
      vertex -14.6722 3.11867 33
      vertex -10.037 11.1472 33
    endloop
  endfacet
  facet normal 0 0 1
    outer loop
      vertex -13.7032 6.10105 33
      vertex -14.6722 3.11867 33
      vertex -12.1353 8.81678 33
    endloop
  endfacet
  facet normal 0 0 1
    outer loop
      vertex 5.75 -9.95929 33
      vertex 3.55369 -10.9371 33
      vertex 7.5 -12.9904 33
    endloop
  endfacet
  facet normal 0 0 1
    outer loop
      vertex -3.55369 -10.9371 33
      vertex -5.75 -9.95929 33
      vertex -1.56793 -14.9178 33
    endloop
  endfacet
  facet normal 0 0 1
    outer loop
      vertex 9.30205 -6.20256 33
      vertex 7.91274 -7.64124 33
      vertex 9.50956 -6.40295 33
    endloop
  endfacet
  facet normal 0 0 1
    outer loop
      vertex -11.2898 2 33
      vertex -11.2487 2.39098 33
      vertex -14.6722 3.11867 33
    endloop
  endfacet
  facet normal 0 0 1
    outer loop
      vertex 6.52342 9.07992 33
      vertex 8.23211 7.94965 33
      vertex 12.1353 8.81678 33
    endloop
  endfacet
  facet normal 0 0 1
    outer loop
      vertex -5.75 9.95929 33
      vertex -3.55369 10.9371 33
      vertex 1.56793 14.9178 33
    endloop
  endfacet
  facet normal 0 0 1
    outer loop
      vertex -8.23211 7.94965 33
      vertex -7.91274 7.64124 33
      vertex -6.52342 9.07992 33
    endloop
  endfacet
  facet normal 0 0 1
    outer loop
      vertex -1.56793 14.9178 33
      vertex -14.6722 3.11867 33
      vertex -8.23211 7.94965 33
    endloop
  endfacet
  facet normal 0 0 1
    outer loop
      vertex 1.20208 11.437 33
      vertex 3.55369 10.9371 33
      vertex 7.5 12.9904 33
    endloop
  endfacet
  facet normal 0 0 1
    outer loop
      vertex -1.20208 11.437 33
      vertex 1.20208 11.437 33
      vertex 4.63525 14.2658 33
    endloop
  endfacet
  facet normal 0 0 1
    outer loop
      vertex -1.56793 14.9178 33
      vertex -8.23211 7.94965 33
      vertex -6.71101 9.26108 33
    endloop
  endfacet
  facet normal 0 0 1
    outer loop
      vertex -1.56793 14.9178 33
      vertex -5.75 9.95929 33
      vertex 1.56793 14.9178 33
    endloop
  endfacet
  facet normal 0 0 1
    outer loop
      vertex -1.56793 14.9178 33
      vertex -6.71101 9.26108 33
      vertex -5.75 9.95929 33
    endloop
  endfacet
  facet normal 0 0 1
    outer loop
      vertex 1.56793 14.9178 33
      vertex -3.55369 10.9371 33
      vertex 4.63525 14.2658 33
    endloop
  endfacet
  facet normal 0 0 1
    outer loop
      vertex -3.55369 10.9371 33
      vertex -1.20208 11.437 33
      vertex 4.63525 14.2658 33
    endloop
  endfacet
  facet normal 0 0 1
    outer loop
      vertex 4.63525 14.2658 33
      vertex 1.20208 11.437 33
      vertex 7.5 12.9904 33
    endloop
  endfacet
  facet normal 0 0 1
    outer loop
      vertex 7.5 12.9904 33
      vertex 3.55369 10.9371 33
      vertex 10.037 11.1472 33
    endloop
  endfacet
  facet normal 0 0 1
    outer loop
      vertex 3.55369 10.9371 33
      vertex 5.75 9.95929 33
      vertex 10.037 11.1472 33
    endloop
  endfacet
  facet normal 0 0 1
    outer loop
      vertex 10.037 11.1472 33
      vertex 6.71101 9.26108 33
      vertex 12.1353 8.81678 33
    endloop
  endfacet
  facet normal 0 0 1
    outer loop
      vertex 6.52342 9.07992 33
      vertex 7.91274 7.64124 33
      vertex 8.23211 7.94965 33
    endloop
  endfacet
  facet normal 0 0 1
    outer loop
      vertex 6.71101 9.26108 33
      vertex 6.52342 9.07992 33
      vertex 12.1353 8.81678 33
    endloop
  endfacet
  facet normal 0 0 1
    outer loop
      vertex 5.75 9.95929 33
      vertex 6.71101 9.26108 33
      vertex 10.037 11.1472 33
    endloop
  endfacet
  facet normal 0 0 1
    outer loop
      vertex 9.30369 6.75953 33
      vertex 10.5058 4.67747 33
      vertex 13.7032 6.10105 33
    endloop
  endfacet
  facet normal 0 0 1
    outer loop
      vertex 11 2 33
      vertex 11 0 33
      vertex 11.5 0 33
    endloop
  endfacet
  facet normal 0 0 1
    outer loop
      vertex 13.7032 6.10105 33
      vertex 10.5058 4.67747 33
      vertex 14.6722 3.11867 33
    endloop
  endfacet
  facet normal 0 0 1
    outer loop
      vertex 14.6722 3.11867 33
      vertex 11.2487 2.39098 33
      vertex 15 0 33
    endloop
  endfacet
  facet normal 0 0 1
    outer loop
      vertex 11.2487 2.39098 33
      vertex 11.2898 2 33
      vertex 15 0 33
    endloop
  endfacet
  facet normal 0 0 1
    outer loop
      vertex 11.2898 2 33
      vertex 11 2 33
      vertex 15 0 33
    endloop
  endfacet
  facet normal 0 0 1
    outer loop
      vertex 15 0 33
      vertex 11.5 0 33
      vertex 14.6722 -3.11867 33
    endloop
  endfacet
  facet normal 0 0 1
    outer loop
      vertex 14.6722 -3.11867 33
      vertex 10.5058 -4.67747 33
      vertex 13.7032 -6.10105 33
    endloop
  endfacet
  facet normal 0 0 1
    outer loop
      vertex 13.7032 -6.10105 33
      vertex 9.50956 -6.40295 33
      vertex 12.1353 -8.81678 33
    endloop
  endfacet
  facet normal 0 0 1
    outer loop
      vertex 8.23211 7.94965 33
      vertex 13.7032 6.10105 33
      vertex 12.1353 8.81678 33
    endloop
  endfacet
  facet normal 0 0 1
    outer loop
      vertex 8.23211 7.94965 33
      vertex 9.30369 6.75953 33
      vertex 13.7032 6.10105 33
    endloop
  endfacet
  facet normal 0 0 1
    outer loop
      vertex 7.695 -8.54617 33
      vertex 5.75 -9.95929 33
      vertex 10.037 -11.1472 33
    endloop
  endfacet
  facet normal 0 0 1
    outer loop
      vertex 10.5058 4.67747 33
      vertex 11.2487 2.39098 33
      vertex 14.6722 3.11867 33
    endloop
  endfacet
  facet normal 0 0 1
    outer loop
      vertex 12.1353 -8.81678 33
      vertex 8.23211 -7.94965 33
      vertex 10.037 -11.1472 33
    endloop
  endfacet
  facet normal 0 0 1
    outer loop
      vertex 12.1353 -8.81678 33
      vertex 7.91274 -7.64124 33
      vertex 8.23211 -7.94965 33
    endloop
  endfacet
  facet normal 0 0 1
    outer loop
      vertex 10.037 -11.1472 33
      vertex 5.75 -9.95929 33
      vertex 7.5 -12.9904 33
    endloop
  endfacet
  facet normal 0 0 1
    outer loop
      vertex 7.5 -12.9904 33
      vertex 3.55369 -10.9371 33
      vertex 4.63525 -14.2658 33
    endloop
  endfacet
  facet normal 0 0 1
    outer loop
      vertex 4.63525 -14.2658 33
      vertex 1.20208 -11.437 33
      vertex 1.56793 -14.9178 33
    endloop
  endfacet
  facet normal 0 0 1
    outer loop
      vertex 1.20208 -11.437 33
      vertex -1.20208 -11.437 33
      vertex 1.56793 -14.9178 33
    endloop
  endfacet
  facet normal 0 0 1
    outer loop
      vertex 1.56793 -14.9178 33
      vertex -3.55369 -10.9371 33
      vertex -1.56793 -14.9178 33
    endloop
  endfacet
  facet normal 0 0 1
    outer loop
      vertex -11.5 0 33
      vertex -11 0 33
      vertex -14.6722 3.11867 33
    endloop
  endfacet
  facet normal 0 0 1
    outer loop
      vertex -1.56793 -14.9178 33
      vertex -5.75 -9.95929 33
      vertex -4.63525 -14.2658 33
    endloop
  endfacet
  facet normal 0 0 1
    outer loop
      vertex -7.91274 -7.64124 33
      vertex -9.30205 -6.20256 33
      vertex -8.23211 -7.94965 33
    endloop
  endfacet
  facet normal 0 0 1
    outer loop
      vertex -5.75 -9.95929 33
      vertex -7.695 -8.54617 33
      vertex -4.63525 -14.2658 33
    endloop
  endfacet
  facet normal 0 0 1
    outer loop
      vertex -4.63525 -14.2658 33
      vertex -9.30205 -6.20256 33
      vertex -7.5 -12.9904 33
    endloop
  endfacet
  facet normal 0 0 1
    outer loop
      vertex -7.695 -8.54617 33
      vertex -8.23211 -7.94965 33
      vertex -4.63525 -14.2658 33
    endloop
  endfacet
  facet normal 0 0 1
    outer loop
      vertex -9.30205 -6.20256 33
      vertex -9.50956 -6.40295 33
      vertex -7.5 -12.9904 33
    endloop
  endfacet
  facet normal 0 0 1
    outer loop
      vertex -11.2487 -2.39098 33
      vertex -11.5 0 33
      vertex -14.6722 3.11867 33
    endloop
  endfacet
  facet normal 0 0 1
    outer loop
      vertex -9.50956 -6.40295 33
      vertex -10.5058 -4.67747 33
      vertex -7.5 -12.9904 33
    endloop
  endfacet
  facet normal 0 0 1
    outer loop
      vertex -8.23211 -7.94965 33
      vertex -9.30205 -6.20256 33
      vertex -4.63525 -14.2658 33
    endloop
  endfacet
  facet normal 0 0 1
    outer loop
      vertex -10.5058 -4.67747 33
      vertex -11.2487 -2.39098 33
      vertex -14.6722 3.11867 33
    endloop
  endfacet
  facet normal 0 0 1
    outer loop
      vertex 3.55369 -10.9371 33
      vertex 1.20208 -11.437 33
      vertex 4.63525 -14.2658 33
    endloop
  endfacet
  facet normal 0 0 1
    outer loop
      vertex -11 0 33
      vertex -11.2898 2 33
      vertex -14.6722 3.11867 33
    endloop
  endfacet
  facet normal 0 0 1
    outer loop
      vertex -11 0 33
      vertex -11 2 33
      vertex -11.2898 2 33
    endloop
  endfacet
  facet normal 0 0 1
    outer loop
      vertex 11.2487 -2.39098 33
      vertex 10.5058 -4.67747 33
      vertex 14.6722 -3.11867 33
    endloop
  endfacet
  facet normal 0 0 1
    outer loop
      vertex 11.5 0 33
      vertex 11.2487 -2.39098 33
      vertex 14.6722 -3.11867 33
    endloop
  endfacet
  facet normal 0 0 1
    outer loop
      vertex 10.5058 -4.67747 33
      vertex 9.50956 -6.40295 33
      vertex 13.7032 -6.10105 33
    endloop
  endfacet
  facet normal 0 0 1
    outer loop
      vertex -11.2487 2.39098 33
      vertex -10.5058 4.67747 33
      vertex -14.6722 3.11867 33
    endloop
  endfacet
  facet normal -0.743145 -0.669131 0
    outer loop
      vertex -12.1353 -8.81678 4
      vertex -10.037 -11.1472 4
      vertex -12.1353 -8.81678 33
    endloop
  endfacet
  facet normal -0.743145 -0.669131 0
    outer loop
      vertex -12.1353 -8.81678 33
      vertex -10.037 -11.1472 4
      vertex -10.037 -11.1472 33
    endloop
  endfacet
  facet normal 0.743145 -0.669131 0
    outer loop
      vertex 10.037 -11.1472 33
      vertex 10.037 -11.1472 4
      vertex 12.1353 -8.81678 4
    endloop
  endfacet
  facet normal 0.743145 -0.669131 0
    outer loop
      vertex 12.1353 -8.81678 33
      vertex 10.037 -11.1472 33
      vertex 12.1353 -8.81678 4
    endloop
  endfacet
  facet normal 0 0 1
    outer loop
      vertex 10.037 11.1472 4
      vertex 36 12 4
      vertex 8.86314 12 4
    endloop
  endfacet
  facet normal 0 0 1
    outer loop
      vertex 36 -12 4
      vertex 36 12 4
      vertex 10.037 11.1472 4
    endloop
  endfacet
  facet normal 0 0 1
    outer loop
      vertex 13.7032 6.10105 4
      vertex 36 -12 4
      vertex 12.1353 8.81678 4
    endloop
  endfacet
  facet normal 0 0 1
    outer loop
      vertex 14.6722 3.11867 4
      vertex 36 -12 4
      vertex 13.7032 6.10105 4
    endloop
  endfacet
  facet normal 0 0 1
    outer loop
      vertex 15 0 4
      vertex 36 -12 4
      vertex 14.6722 3.11867 4
    endloop
  endfacet
  facet normal 0 0 1
    outer loop
      vertex 14.6722 -3.11867 4
      vertex 36 -12 4
      vertex 15 0 4
    endloop
  endfacet
  facet normal 0 0 1
    outer loop
      vertex 13.7032 -6.10105 4
      vertex 36 -12 4
      vertex 14.6722 -3.11867 4
    endloop
  endfacet
  facet normal 0 0 1
    outer loop
      vertex 12.1353 -8.81678 4
      vertex 36 -12 4
      vertex 13.7032 -6.10105 4
    endloop
  endfacet
  facet normal 0 0 1
    outer loop
      vertex 10.037 -11.1472 4
      vertex 36 -12 4
      vertex 12.1353 -8.81678 4
    endloop
  endfacet
  facet normal 0 0 1
    outer loop
      vertex 8.86314 -12 4
      vertex 36 -12 4
      vertex 10.037 -11.1472 4
    endloop
  endfacet
  facet normal 0 0 1
    outer loop
      vertex 10.037 11.1472 4
      vertex 12.1353 8.81678 4
      vertex 36 -12 4
    endloop
  endfacet
  facet normal 0.743145 0.669131 0
    outer loop
      vertex 12.1353 8.81678 4
      vertex 10.037 11.1472 4
      vertex 10.037 11.1472 33
    endloop
  endfacet
  facet normal 0.743145 0.669131 0
    outer loop
      vertex 12.1353 8.81678 33
      vertex 12.1353 8.81678 4
      vertex 10.037 11.1472 33
    endloop
  endfacet
  facet normal -0.743145 0.669131 0
    outer loop
      vertex -12.1353 8.81678 4
      vertex -12.1353 8.81678 33
      vertex -10.037 11.1472 4
    endloop
  endfacet
  facet normal -0.743145 0.669131 0
    outer loop
      vertex -10.037 11.1472 4
      vertex -12.1353 8.81678 33
      vertex -10.037 11.1472 33
    endloop
  endfacet
  facet normal 0.994522 0.104529 0
    outer loop
      vertex -11.5 0 33
      vertex -11.2487 -2.39098 33
      vertex -11.2487 -2.39098 4
    endloop
  endfacet
  facet normal 0.994522 0.104529 0
    outer loop
      vertex -11.5 0 4
      vertex -11.5 0 33
      vertex -11.2487 -2.39098 4
    endloop
  endfacet
  facet normal 0.951057 0.309017 0
    outer loop
      vertex -11.2487 -2.39098 33
      vertex -10.5058 -4.67747 33
      vertex -10.5058 -4.67747 4
    endloop
  endfacet
  facet normal 0.951057 0.309017 0
    outer loop
      vertex -11.2487 -2.39098 4
      vertex -11.2487 -2.39098 33
      vertex -10.5058 -4.67747 4
    endloop
  endfacet
  facet normal 0 -1 0
    outer loop
      vertex -11.5 0 33
      vertex -11.5 0 4
      vertex -11 0 4
    endloop
  endfacet
  facet normal 0 -1 0
    outer loop
      vertex -11 0 33
      vertex -11.5 0 33
      vertex -11 0 4
    endloop
  endfacet
  facet normal 1 0 0
    outer loop
      vertex -11 0 33
      vertex -11 0 4
      vertex -11 2 4
    endloop
  endfacet
  facet normal 1 0 0
    outer loop
      vertex -11 2 33
      vertex -11 0 33
      vertex -11 2 4
    endloop
  endfacet
  facet normal 0 1 0
    outer loop
      vertex -11.2898 2 4
      vertex -11.2898 2 33
      vertex -11 2 4
    endloop
  endfacet
  facet normal 0 1 0
    outer loop
      vertex -11 2 4
      vertex -11.2898 2 33
      vertex -11 2 33
    endloop
  endfacet
  facet normal 0.994522 -0.104529 0
    outer loop
      vertex -11.2487 2.39098 4
      vertex -11.2487 2.39098 33
      vertex -11.2898 2 33
    endloop
  endfacet
  facet normal 0.994522 -0.104529 0
    outer loop
      vertex -11.2898 2 4
      vertex -11.2487 2.39098 4
      vertex -11.2898 2 33
    endloop
  endfacet
  facet normal 0.951057 -0.309017 0
    outer loop
      vertex -10.5058 4.67747 4
      vertex -10.5058 4.67747 33
      vertex -11.2487 2.39098 33
    endloop
  endfacet
  facet normal 0.951057 -0.309017 0
    outer loop
      vertex -11.2487 2.39098 4
      vertex -10.5058 4.67747 4
      vertex -11.2487 2.39098 33
    endloop
  endfacet
  facet normal 0.866025 -0.5 0
    outer loop
      vertex -9.30369 6.75953 4
      vertex -9.30369 6.75953 33
      vertex -10.5058 4.67747 33
    endloop
  endfacet
  facet normal 0.866025 -0.5 0
    outer loop
      vertex -10.5058 4.67747 4
      vertex -9.30369 6.75953 4
      vertex -10.5058 4.67747 33
    endloop
  endfacet
  facet normal 0.743145 -0.669131 0
    outer loop
      vertex -8.23211 7.94965 4
      vertex -8.23211 7.94965 33
      vertex -9.30369 6.75953 33
    endloop
  endfacet
  facet normal 0.743145 -0.669131 0
    outer loop
      vertex -9.30369 6.75953 4
      vertex -8.23211 7.94965 4
      vertex -9.30369 6.75953 33
    endloop
  endfacet
  facet normal -0.694658 -0.71934 0
    outer loop
      vertex -8.23211 7.94965 33
      vertex -8.23211 7.94965 4
      vertex -7.91274 7.64124 4
    endloop
  endfacet
  facet normal -0.694658 -0.71934 0
    outer loop
      vertex -7.91274 7.64124 33
      vertex -8.23211 7.94965 33
      vertex -7.91274 7.64124 4
    endloop
  endfacet
  facet normal 0.71934 -0.694658 0
    outer loop
      vertex -7.91274 7.64124 33
      vertex -7.91274 7.64124 4
      vertex -6.52342 9.07992 4
    endloop
  endfacet
  facet normal 0.71934 -0.694658 0
    outer loop
      vertex -6.52342 9.07992 33
      vertex -7.91274 7.64124 33
      vertex -6.52342 9.07992 4
    endloop
  endfacet
  facet normal 0.694658 0.71934 0
    outer loop
      vertex -6.71101 9.26108 4
      vertex -6.71101 9.26108 33
      vertex -6.52342 9.07992 4
    endloop
  endfacet
  facet normal 0.694658 0.71934 0
    outer loop
      vertex -6.52342 9.07992 4
      vertex -6.71101 9.26108 33
      vertex -6.52342 9.07992 33
    endloop
  endfacet
  facet normal 0.587785 -0.809017 0
    outer loop
      vertex -5.75 9.95929 4
      vertex -5.75 9.95929 33
      vertex -6.71101 9.26108 33
    endloop
  endfacet
  facet normal 0.587785 -0.809017 0
    outer loop
      vertex -6.71101 9.26108 4
      vertex -5.75 9.95929 4
      vertex -6.71101 9.26108 33
    endloop
  endfacet
  facet normal 0.406737 -0.913545 0
    outer loop
      vertex -3.55369 10.9371 4
      vertex -3.55369 10.9371 33
      vertex -5.75 9.95929 33
    endloop
  endfacet
  facet normal 0.406737 -0.913545 0
    outer loop
      vertex -5.75 9.95929 4
      vertex -3.55369 10.9371 4
      vertex -5.75 9.95929 33
    endloop
  endfacet
  facet normal 0.207912 -0.978148 0
    outer loop
      vertex -1.20208 11.437 4
      vertex -1.20208 11.437 33
      vertex -3.55369 10.9371 33
    endloop
  endfacet
  facet normal 0.207912 -0.978148 0
    outer loop
      vertex -3.55369 10.9371 4
      vertex -1.20208 11.437 4
      vertex -3.55369 10.9371 33
    endloop
  endfacet
  facet normal 0 -1 0
    outer loop
      vertex 1.20208 11.437 4
      vertex 1.20208 11.437 33
      vertex -1.20208 11.437 33
    endloop
  endfacet
  facet normal 0 -1 0
    outer loop
      vertex -1.20208 11.437 4
      vertex 1.20208 11.437 4
      vertex -1.20208 11.437 33
    endloop
  endfacet
  facet normal -0.207912 -0.978148 0
    outer loop
      vertex 3.55369 10.9371 4
      vertex 3.55369 10.9371 33
      vertex 1.20208 11.437 33
    endloop
  endfacet
  facet normal -0.207912 -0.978148 0
    outer loop
      vertex 1.20208 11.437 4
      vertex 3.55369 10.9371 4
      vertex 1.20208 11.437 33
    endloop
  endfacet
  facet normal -0.406737 -0.913545 0
    outer loop
      vertex 5.75 9.95929 4
      vertex 5.75 9.95929 33
      vertex 3.55369 10.9371 33
    endloop
  endfacet
  facet normal -0.406737 -0.913545 0
    outer loop
      vertex 3.55369 10.9371 4
      vertex 5.75 9.95929 4
      vertex 3.55369 10.9371 33
    endloop
  endfacet
  facet normal -0.587785 -0.809017 0
    outer loop
      vertex 6.71101 9.26108 4
      vertex 6.71101 9.26108 33
      vertex 5.75 9.95929 33
    endloop
  endfacet
  facet normal -0.587785 -0.809017 0
    outer loop
      vertex 5.75 9.95929 4
      vertex 6.71101 9.26108 4
      vertex 5.75 9.95929 33
    endloop
  endfacet
  facet normal -0.694658 0.71934 0
    outer loop
      vertex 6.52342 9.07992 4
      vertex 6.52342 9.07992 33
      vertex 6.71101 9.26108 4
    endloop
  endfacet
  facet normal -0.694658 0.71934 0
    outer loop
      vertex 6.71101 9.26108 4
      vertex 6.52342 9.07992 33
      vertex 6.71101 9.26108 33
    endloop
  endfacet
  facet normal -0.71934 -0.694658 0
    outer loop
      vertex 6.52342 9.07992 4
      vertex 7.91274 7.64124 4
      vertex 6.52342 9.07992 33
    endloop
  endfacet
  facet normal -0.71934 -0.694658 0
    outer loop
      vertex 6.52342 9.07992 33
      vertex 7.91274 7.64124 4
      vertex 7.91274 7.64124 33
    endloop
  endfacet
  facet normal 0.694658 -0.71934 0
    outer loop
      vertex 7.91274 7.64124 33
      vertex 7.91274 7.64124 4
      vertex 8.23211 7.94965 4
    endloop
  endfacet
  facet normal 0.694658 -0.71934 0
    outer loop
      vertex 8.23211 7.94965 33
      vertex 7.91274 7.64124 33
      vertex 8.23211 7.94965 4
    endloop
  endfacet
  facet normal -0.743145 -0.669131 0
    outer loop
      vertex 9.30369 6.75953 33
      vertex 8.23211 7.94965 33
      vertex 9.30369 6.75953 4
    endloop
  endfacet
  facet normal -0.743145 -0.669131 0
    outer loop
      vertex 9.30369 6.75953 4
      vertex 8.23211 7.94965 33
      vertex 8.23211 7.94965 4
    endloop
  endfacet
  facet normal -0.866025 -0.5 0
    outer loop
      vertex 10.5058 4.67747 33
      vertex 9.30369 6.75953 33
      vertex 10.5058 4.67747 4
    endloop
  endfacet
  facet normal -0.866025 -0.5 0
    outer loop
      vertex 10.5058 4.67747 4
      vertex 9.30369 6.75953 33
      vertex 9.30369 6.75953 4
    endloop
  endfacet
  facet normal -0.951057 -0.309017 0
    outer loop
      vertex 11.2487 2.39098 33
      vertex 10.5058 4.67747 33
      vertex 11.2487 2.39098 4
    endloop
  endfacet
  facet normal -0.951057 -0.309017 0
    outer loop
      vertex 11.2487 2.39098 4
      vertex 10.5058 4.67747 33
      vertex 10.5058 4.67747 4
    endloop
  endfacet
  facet normal -0.994522 -0.104529 0
    outer loop
      vertex 11.2898 2 33
      vertex 11.2487 2.39098 33
      vertex 11.2898 2 4
    endloop
  endfacet
  facet normal -0.994522 -0.104529 0
    outer loop
      vertex 11.2898 2 4
      vertex 11.2487 2.39098 33
      vertex 11.2487 2.39098 4
    endloop
  endfacet
  facet normal 0 1 0
    outer loop
      vertex 11 2 4
      vertex 11 2 33
      vertex 11.2898 2 4
    endloop
  endfacet
  facet normal 0 1 0
    outer loop
      vertex 11.2898 2 4
      vertex 11 2 33
      vertex 11.2898 2 33
    endloop
  endfacet
  facet normal -1 0 0
    outer loop
      vertex 11 0 4
      vertex 11 0 33
      vertex 11 2 4
    endloop
  endfacet
  facet normal -1 0 0
    outer loop
      vertex 11 2 4
      vertex 11 0 33
      vertex 11 2 33
    endloop
  endfacet
  facet normal 0 -1 0
    outer loop
      vertex 11 0 33
      vertex 11 0 4
      vertex 11.5 0 4
    endloop
  endfacet
  facet normal 0 -1 0
    outer loop
      vertex 11.5 0 33
      vertex 11 0 33
      vertex 11.5 0 4
    endloop
  endfacet
  facet normal -0.994522 0.104529 0
    outer loop
      vertex 11.5 0 33
      vertex 11.5 0 4
      vertex 11.2487 -2.39098 33
    endloop
  endfacet
  facet normal -0.994522 0.104529 0
    outer loop
      vertex 11.2487 -2.39098 33
      vertex 11.5 0 4
      vertex 11.2487 -2.39098 4
    endloop
  endfacet
  facet normal -0.951057 0.309017 0
    outer loop
      vertex 11.2487 -2.39098 33
      vertex 11.2487 -2.39098 4
      vertex 10.5058 -4.67747 33
    endloop
  endfacet
  facet normal -0.951057 0.309017 0
    outer loop
      vertex 10.5058 -4.67747 33
      vertex 11.2487 -2.39098 4
      vertex 10.5058 -4.67747 4
    endloop
  endfacet
  facet normal -0.866025 0.5 0
    outer loop
      vertex 10.5058 -4.67747 33
      vertex 10.5058 -4.67747 4
      vertex 9.50956 -6.40295 33
    endloop
  endfacet
  facet normal -0.866025 0.5 0
    outer loop
      vertex 9.50956 -6.40295 33
      vertex 10.5058 -4.67747 4
      vertex 9.50956 -6.40295 4
    endloop
  endfacet
  facet normal 0.694658 0.71934 0
    outer loop
      vertex 9.30205 -6.20256 4
      vertex 9.30205 -6.20256 33
      vertex 9.50956 -6.40295 4
    endloop
  endfacet
  facet normal 0.694658 0.71934 0
    outer loop
      vertex 9.50956 -6.40295 4
      vertex 9.30205 -6.20256 33
      vertex 9.50956 -6.40295 33
    endloop
  endfacet
  facet normal -0.71934 0.694658 0
    outer loop
      vertex 7.91274 -7.64124 4
      vertex 7.91274 -7.64124 33
      vertex 9.30205 -6.20256 4
    endloop
  endfacet
  facet normal -0.71934 0.694658 0
    outer loop
      vertex 9.30205 -6.20256 4
      vertex 7.91274 -7.64124 33
      vertex 9.30205 -6.20256 33
    endloop
  endfacet
  facet normal -0.694658 -0.71934 0
    outer loop
      vertex 7.91274 -7.64124 33
      vertex 7.91274 -7.64124 4
      vertex 8.23211 -7.94965 4
    endloop
  endfacet
  facet normal -0.694658 -0.71934 0
    outer loop
      vertex 8.23211 -7.94965 33
      vertex 7.91274 -7.64124 33
      vertex 8.23211 -7.94965 4
    endloop
  endfacet
  facet normal -0.743145 0.669131 0
    outer loop
      vertex 8.23211 -7.94965 33
      vertex 8.23211 -7.94965 4
      vertex 7.695 -8.54617 33
    endloop
  endfacet
  facet normal -0.743145 0.669131 0
    outer loop
      vertex 7.695 -8.54617 33
      vertex 8.23211 -7.94965 4
      vertex 7.695 -8.54617 4
    endloop
  endfacet
  facet normal -0.587785 0.809017 0
    outer loop
      vertex 7.695 -8.54617 33
      vertex 7.695 -8.54617 4
      vertex 5.75 -9.95929 33
    endloop
  endfacet
  facet normal -0.587785 0.809017 0
    outer loop
      vertex 5.75 -9.95929 33
      vertex 7.695 -8.54617 4
      vertex 5.75 -9.95929 4
    endloop
  endfacet
  facet normal -0.406737 0.913545 0
    outer loop
      vertex 5.75 -9.95929 33
      vertex 5.75 -9.95929 4
      vertex 3.55369 -10.9371 33
    endloop
  endfacet
  facet normal -0.406737 0.913545 0
    outer loop
      vertex 3.55369 -10.9371 33
      vertex 5.75 -9.95929 4
      vertex 3.55369 -10.9371 4
    endloop
  endfacet
  facet normal -0.207912 0.978148 0
    outer loop
      vertex 3.55369 -10.9371 33
      vertex 3.55369 -10.9371 4
      vertex 1.20208 -11.437 33
    endloop
  endfacet
  facet normal -0.207912 0.978148 0
    outer loop
      vertex 1.20208 -11.437 33
      vertex 3.55369 -10.9371 4
      vertex 1.20208 -11.437 4
    endloop
  endfacet
  facet normal 0 1 0
    outer loop
      vertex 1.20208 -11.437 33
      vertex 1.20208 -11.437 4
      vertex -1.20208 -11.437 33
    endloop
  endfacet
  facet normal 0 1 0
    outer loop
      vertex -1.20208 -11.437 33
      vertex 1.20208 -11.437 4
      vertex -1.20208 -11.437 4
    endloop
  endfacet
  facet normal 0.207912 0.978148 0
    outer loop
      vertex -1.20208 -11.437 33
      vertex -1.20208 -11.437 4
      vertex -3.55369 -10.9371 33
    endloop
  endfacet
  facet normal 0.207912 0.978148 0
    outer loop
      vertex -3.55369 -10.9371 33
      vertex -1.20208 -11.437 4
      vertex -3.55369 -10.9371 4
    endloop
  endfacet
  facet normal 0.406737 0.913545 0
    outer loop
      vertex -3.55369 -10.9371 33
      vertex -3.55369 -10.9371 4
      vertex -5.75 -9.95929 33
    endloop
  endfacet
  facet normal 0.406737 0.913545 0
    outer loop
      vertex -5.75 -9.95929 33
      vertex -3.55369 -10.9371 4
      vertex -5.75 -9.95929 4
    endloop
  endfacet
  facet normal 0.587785 0.809017 0
    outer loop
      vertex -5.75 -9.95929 33
      vertex -5.75 -9.95929 4
      vertex -7.695 -8.54617 33
    endloop
  endfacet
  facet normal 0.587785 0.809017 0
    outer loop
      vertex -7.695 -8.54617 33
      vertex -5.75 -9.95929 4
      vertex -7.695 -8.54617 4
    endloop
  endfacet
  facet normal 0.743145 0.669131 0
    outer loop
      vertex -8.23211 -7.94965 33
      vertex -7.695 -8.54617 33
      vertex -7.695 -8.54617 4
    endloop
  endfacet
  facet normal 0.743145 0.669131 0
    outer loop
      vertex -8.23211 -7.94965 4
      vertex -8.23211 -7.94965 33
      vertex -7.695 -8.54617 4
    endloop
  endfacet
  facet normal 0.694658 -0.71934 0
    outer loop
      vertex -8.23211 -7.94965 33
      vertex -8.23211 -7.94965 4
      vertex -7.91274 -7.64124 4
    endloop
  endfacet
  facet normal 0.694658 -0.71934 0
    outer loop
      vertex -7.91274 -7.64124 33
      vertex -8.23211 -7.94965 33
      vertex -7.91274 -7.64124 4
    endloop
  endfacet
  facet normal 0.71934 0.694658 0
    outer loop
      vertex -7.91274 -7.64124 4
      vertex -9.30205 -6.20256 4
      vertex -9.30205 -6.20256 33
    endloop
  endfacet
  facet normal 0.71934 0.694658 0
    outer loop
      vertex -7.91274 -7.64124 33
      vertex -7.91274 -7.64124 4
      vertex -9.30205 -6.20256 33
    endloop
  endfacet
  facet normal -0.694658 0.71934 0
    outer loop
      vertex -9.50956 -6.40295 4
      vertex -9.50956 -6.40295 33
      vertex -9.30205 -6.20256 4
    endloop
  endfacet
  facet normal -0.694658 0.71934 0
    outer loop
      vertex -9.30205 -6.20256 4
      vertex -9.50956 -6.40295 33
      vertex -9.30205 -6.20256 33
    endloop
  endfacet
  facet normal 0.866025 0.5 0
    outer loop
      vertex -10.5058 -4.67747 33
      vertex -9.50956 -6.40295 33
      vertex -9.50956 -6.40295 4
    endloop
  endfacet
  facet normal 0.866025 0.5 0
    outer loop
      vertex -10.5058 -4.67747 4
      vertex -10.5058 -4.67747 33
      vertex -9.50956 -6.40295 4
    endloop
  endfacet
  facet normal -0.866025 0.5 0
    outer loop
      vertex -13.7032 6.10105 4
      vertex -13.7032 6.10105 33
      vertex -12.1353 8.81678 4
    endloop
  endfacet
  facet normal -0.866025 0.5 0
    outer loop
      vertex -12.1353 8.81678 4
      vertex -13.7032 6.10105 33
      vertex -12.1353 8.81678 33
    endloop
  endfacet
  facet normal -0.951057 0.309017 0
    outer loop
      vertex -14.6722 3.11867 4
      vertex -14.6722 3.11867 33
      vertex -13.7032 6.10105 4
    endloop
  endfacet
  facet normal -0.951057 0.309017 0
    outer loop
      vertex -13.7032 6.10105 4
      vertex -14.6722 3.11867 33
      vertex -13.7032 6.10105 33
    endloop
  endfacet
  facet normal -0.994522 0.104528 0
    outer loop
      vertex -15 0 4
      vertex -15 0 33
      vertex -14.6722 3.11867 4
    endloop
  endfacet
  facet normal -0.994522 0.104528 0
    outer loop
      vertex -14.6722 3.11867 4
      vertex -15 0 33
      vertex -14.6722 3.11867 33
    endloop
  endfacet
  facet normal -0.994522 -0.104528 0
    outer loop
      vertex -15 0 4
      vertex -14.6722 -3.11867 4
      vertex -15 0 33
    endloop
  endfacet
  facet normal -0.994522 -0.104528 0
    outer loop
      vertex -15 0 33
      vertex -14.6722 -3.11867 4
      vertex -14.6722 -3.11867 33
    endloop
  endfacet
  facet normal -0.951057 -0.309017 0
    outer loop
      vertex -14.6722 -3.11867 4
      vertex -13.7032 -6.10105 4
      vertex -14.6722 -3.11867 33
    endloop
  endfacet
  facet normal -0.951057 -0.309017 0
    outer loop
      vertex -14.6722 -3.11867 33
      vertex -13.7032 -6.10105 4
      vertex -13.7032 -6.10105 33
    endloop
  endfacet
  facet normal -0.866025 -0.5 0
    outer loop
      vertex -13.7032 -6.10105 4
      vertex -12.1353 -8.81678 4
      vertex -13.7032 -6.10105 33
    endloop
  endfacet
  facet normal -0.866025 -0.5 0
    outer loop
      vertex -13.7032 -6.10105 33
      vertex -12.1353 -8.81678 4
      vertex -12.1353 -8.81678 33
    endloop
  endfacet
  facet normal 0.866025 0.5 0
    outer loop
      vertex 13.7032 6.10105 4
      vertex 12.1353 8.81678 4
      vertex 12.1353 8.81678 33
    endloop
  endfacet
  facet normal 0.866025 0.5 0
    outer loop
      vertex 13.7032 6.10105 33
      vertex 13.7032 6.10105 4
      vertex 12.1353 8.81678 33
    endloop
  endfacet
  facet normal 0.951057 0.309017 0
    outer loop
      vertex 14.6722 3.11867 4
      vertex 13.7032 6.10105 4
      vertex 13.7032 6.10105 33
    endloop
  endfacet
  facet normal 0.951057 0.309017 0
    outer loop
      vertex 14.6722 3.11867 33
      vertex 14.6722 3.11867 4
      vertex 13.7032 6.10105 33
    endloop
  endfacet
  facet normal 0.994522 0.104528 0
    outer loop
      vertex 15 0 4
      vertex 14.6722 3.11867 4
      vertex 14.6722 3.11867 33
    endloop
  endfacet
  facet normal 0.994522 0.104528 0
    outer loop
      vertex 15 0 33
      vertex 15 0 4
      vertex 14.6722 3.11867 33
    endloop
  endfacet
  facet normal 0.994522 -0.104528 0
    outer loop
      vertex 14.6722 -3.11867 33
      vertex 14.6722 -3.11867 4
      vertex 15 0 4
    endloop
  endfacet
  facet normal 0.994522 -0.104528 0
    outer loop
      vertex 15 0 33
      vertex 14.6722 -3.11867 33
      vertex 15 0 4
    endloop
  endfacet
  facet normal 0.951057 -0.309017 0
    outer loop
      vertex 13.7032 -6.10105 33
      vertex 13.7032 -6.10105 4
      vertex 14.6722 -3.11867 4
    endloop
  endfacet
  facet normal 0.951057 -0.309017 0
    outer loop
      vertex 14.6722 -3.11867 33
      vertex 13.7032 -6.10105 33
      vertex 14.6722 -3.11867 4
    endloop
  endfacet
  facet normal 0.866025 -0.5 0
    outer loop
      vertex 12.1353 -8.81678 33
      vertex 12.1353 -8.81678 4
      vertex 13.7032 -6.10105 4
    endloop
  endfacet
  facet normal 0.866025 -0.5 0
    outer loop
      vertex 13.7032 -6.10105 33
      vertex 12.1353 -8.81678 33
      vertex 13.7032 -6.10105 4
    endloop
  endfacet
endsolid OpenSCAD_Model
